<svg width="289" height="238" viewBox="0 0 289 238" fill="none" xmlns="http://www.w3.org/2000/svg">
<path d="M184.385 237.487C160.417 234.235 143.761 226.345 126.031 209.843L119.24 203.523V187.089V170.656L120.736 171.379C121.559 171.776 122.958 172.521 123.844 173.035C125.689 174.105 131.728 176.409 135.123 177.339C139.751 178.606 145.682 179.298 151.907 179.298C159.13 179.298 164.982 178.489 170.96 176.663C173.198 175.979 175.115 175.419 175.219 175.419C175.322 175.419 175.41 177.698 175.414 180.484C175.418 183.269 175.574 185.764 175.76 186.029C176.605 187.23 184.474 190.208 189.364 191.176C193.55 192.005 202.613 191.975 207.049 191.117C218.674 188.869 226.222 182.634 229.636 172.458L230.884 168.739L231.011 104.196L231.137 39.6525H259.688H288.238L288.073 104.842C287.925 163.17 287.827 170.531 287.136 174.773C283.785 195.345 275.236 210.055 260.349 220.86C248.684 229.326 234.776 234.348 215.461 237.069C211.125 237.68 188.089 237.99 184.385 237.487ZM0 101.721V0H28.0836H56.1672V29.3084C56.1672 45.428 56.2402 58.6168 56.3294 58.6168C56.4187 58.6168 58.6458 57.6695 61.2786 56.5117C74.2479 50.8082 90.1312 47.8182 104.047 48.4607C111.383 48.7994 122.301 50.1556 126.837 51.2918C135.365 53.428 143.123 56.6104 149.118 60.4316C152.313 62.4684 153.31 63.2054 156.617 65.9767L157.943 67.0871L151.597 67.1215C142.308 67.1718 134.808 68.7279 126.495 72.3301C117.733 76.1268 109.633 82.3339 103.546 89.9161C101.229 92.8017 100.176 93.8003 99.6374 93.6584C97.5635 93.1121 88.8296 93.7358 84.127 94.1482C69.2411 95.4536 60.8509 99.9682 56.9221 110.097C56.5652 111.017 56.3393 125.274 56.1739 157.317L55.937 203.219L27.9685 203.33L0 203.442V101.721Z" fill="#014F7B"/>
<path d="M90.1984 48.7811C71.3266 51.0001 58.2127 56.3834 44.2524 67.642L38.9056 71.9541V83.1659V94.3778L40.0837 93.8849C40.7317 93.6138 41.8328 93.1053 42.5306 92.7547C43.9833 92.025 48.7383 90.453 51.4117 89.8185C55.0553 88.9539 59.7251 88.4815 64.6262 88.4815C70.3133 88.4815 74.9216 89.0338 79.6282 90.2796C81.3906 90.7462 81.9094 89.6611 82.9812 91.1279C83.7401 91.8718 84.4537 91.1713 85.1972 91.3111C87.1656 91.681 85.8785 90.2184 89.6633 90.207C92.4643 91.2244 89.1692 93.5032 92.0775 93.6138C97.4564 93.8182 102.813 95.0007 107.69 97.0049C114.876 99.9585 119.347 105.173 119.268 109.946L119.137 117.822L119.288 138.721L119.281 169.487L120.715 184.504L149.366 183.757L175.26 184.681L175.582 139.94C175.814 107.835 175.358 93.9354 174.814 91.0411C172.176 77.0053 161.731 67.497 150.01 60.1252C140.826 54.3492 129.874 50.9225 114.667 49.0661C111.252 48.6493 93.1153 48.4381 90.1984 48.7811Z" fill="#014F7B"/>
</svg>
